<?xml version="1.0" encoding="UTF-8"?>
<svg width="217px" height="191px" viewBox="0 0 217 191" version="1.1" xmlns="http://www.w3.org/2000/svg" xmlns:xlink="http://www.w3.org/1999/xlink">
    <!-- Generator: Sketch 63.1 (92452) - https://sketch.com -->
    <title>Group 33</title>
    <desc>Created with Sketch.</desc>
    <g id="Machine-Book" stroke="none" stroke-width="1" fill="none" fill-rule="evenodd">
        <g id="Machine-Book---Machines-Empty" transform="translate(-615.000000, -276.000000)">
            <g id="Group-33" transform="translate(607.000000, 274.000000)">
                <path d="M215,41.5 L147,41.5 C145.722098,41.5 144.530262,41.8686302 143.525337,42.5055819 C142.698733,43.0295079 141.998474,43.734749 141.480666,44.565358 C145.567766,44.9289889 149.22675,46.7829159 151.909732,49.5803239 C154.752818,52.5446639 156.5,56.5682898 156.5,61 C156.5,65.3277428 154.833822,69.2663146 152.107944,72.2093324 C149.559149,74.9611606 146.083772,76.8423668 142.177701,77.3576575 C143.36641,78.6732229 145.086622,79.5 147,79.5 L215,79.5 C216.794925,79.5 218.419925,78.7724627 219.596194,77.5961941 C220.772463,76.4199254 221.5,74.7949254 221.5,73 L221.5,48 C221.5,46.2050746 220.772463,44.5800746 219.596194,43.4038059 C218.419925,42.2275373 216.794925,41.5 215,41.5 Z" id="Combined-Shape" stroke="#008DAD" fill="#F4F8F9" transform="translate(181.333581, 60.500000) rotate(16.000000) translate(-181.333581, -60.500000) "></path>
                <circle id="Oval" stroke="#F4F8F9" fill="#008DAD" cx="141.5" cy="49.5" r="15.5"></circle>
                <path d="M21.7981969,19.0912791 C18.4073337,19.0913352 15.3307017,20.4687902 13.1036582,22.6958337 C10.8766147,24.9228772 9.49915968,27.9995092 9.49915968,31.397863 C9.49915968,34.8667617 10.8914141,38.0144987 13.1507958,40.3080135 C15.4101774,42.6015284 18.5366863,44.040821 22.005195,44.0928309 L143.201803,45.9087209 C146.592666,45.9086648 149.669298,44.5312098 151.896342,42.3041663 C154.123385,40.0771228 155.50084,37.0004908 155.50084,33.602137 C155.50084,30.1332383 154.108586,26.9855013 151.849204,24.6919865 C149.589823,22.3984716 146.463314,20.959179 142.994805,20.9071691 L21.7981969,19.0912791 Z" id="Rectangle" stroke="#008DAD" fill="#FFFFFF" transform="translate(82.500000, 32.500000) rotate(-345.000000) translate(-82.500000, -32.500000) "></path>
                <path d="M75.1879584,-26.8223415 C74.3586875,-26.8223415 73.607666,-26.4867009 73.0635024,-25.943743 C72.5193388,-25.4007851 72.182033,-24.6505099 72.1801935,-23.821241 L71.9408892,84.0655806 C71.9408904,84.8907572 72.2758088,85.6388184 72.8172986,86.1803083 C73.3587885,86.7217981 74.1068497,87.0567165 74.9331353,87.0567165 C75.7624063,87.0567165 76.5134278,86.7210759 77.0575914,86.178118 C77.601755,85.6351601 77.9390607,84.8848849 77.9409002,84.055616 L78.1802046,-23.8312056 C78.1802034,-24.6563822 77.8452849,-25.4044434 77.3037951,-25.9459333 C76.7623053,-26.4874231 76.014244,-26.8223415 75.1879584,-26.8223415 Z" id="Rectangle" stroke="#008DAD" fill="#F4F8F9" transform="translate(75.060547, 30.117188) rotate(-74.000000) translate(-75.060547, -30.117188) "></path>
                <circle id="Oval-Copy-10" stroke="#008DAD" fill="#F4F8F9" cx="142" cy="49" r="6"></circle>
                <circle id="Oval-Copy-15" stroke="#008DAD" fill="#008DAD" transform="translate(142.000000, 49.000000) scale(-1, 1) translate(-142.000000, -49.000000) " cx="142" cy="49" r="2"></circle>
                <g id="Group-32" transform="translate(33.929356, 69.060342) rotate(-344.000000) translate(-33.929356, -69.060342) translate(9.429356, 32.060342)" stroke="#008DAD">
                    <path d="M48.1632028,1.26310095 L1.20804585,1.26310095 C1.32693294,2.58238544 1.91168532,3.76733652 2.79653704,4.65218824 C3.79184128,5.64749248 5.16684128,6.26310095 6.68562434,6.26310095 L42.6856243,6.26310095 C44.2044074,6.26310095 45.5794074,5.64749248 46.5747116,4.65218824 C47.4595634,3.76733652 48.0443157,2.58238544 48.1632028,1.26310095 Z" id="Rectangle" fill="#F4F8F9"></path>
                    <path d="M32.2631009,6.81437566 L13.2631009,6.81437566 L13.2631009,9.31437566 C13.2631009,10.0047316 13.542923,10.6297316 13.995334,11.0821426 C14.447745,11.5345536 15.072745,11.8143757 15.7631009,11.8143757 L29.7631009,11.8143757 C30.4534569,11.8143757 31.0784569,11.5345536 31.5308679,11.0821426 C31.9832789,10.6297316 32.2631009,10.0047316 32.2631009,9.31437566 L32.2631009,6.81437566 Z" id="Rectangle-Copy-15" fill="#008DAD"></path>
                    <rect id="Rectangle-Copy-17" fill="#F4F8F9" x="16.2631009" y="11.8143757" width="13" height="33"></rect>
                    <circle id="Oval-Copy-16" fill="#F4F8F9" cx="22.7631009" cy="38.3143757" r="3"></circle>
                    <circle id="Oval-Copy-17" fill="#F4F8F9" cx="22.7631009" cy="28.3143757" r="3"></circle>
                    <circle id="Oval-Copy-18" fill="#F4F8F9" cx="22.7631009" cy="18.3143757" r="3"></circle>
                    <g id="Group-23" transform="translate(1.000000, 44.000000)">
                        <path d="M12.3224624,1.61142949 L9.32300941,1.61142949 L10.2153069,28.5841228 C10.2293177,29.0076444 10.4108194,29.3873215 10.7014189,29.6598783 C10.9920167,29.9324334 11.3902786,30.0968913 11.8369986,30.0984922 C12.2298749,30.0833773 12.5800753,29.9115082 12.8293497,29.6451769 C13.0802935,29.3770618 13.2289549,29.0132148 13.2158537,28.6171862 L12.3224624,1.61142949 Z" id="Rectangle" fill="#008DAD" transform="translate(11.261427, 15.855495) rotate(-30.000000) translate(-11.261427, -15.855495) "></path>
                        <path d="M34.4721684,1.96270133 L31.4721781,1.96270133 L31.5845846,27.5305133 C31.5864113,27.9460096 31.7561088,28.3216732 32.0301236,28.5932996 C32.3044146,28.8651998 32.6830359,29.0326802 33.1021277,29.0326729 C33.511725,29.0308674 33.8837942,28.8623188 34.1524641,28.5912761 C34.421134,28.3202334 34.5864046,27.9466965 34.5845943,27.5349097 L34.4721684,1.96270133 Z" id="Rectangle-Copy-16" fill="#008DAD" transform="translate(33.027292, 15.497697) rotate(-330.000000) translate(-33.027292, -15.497697) "></path>
                        <path d="M41.7631009,0.81437566 L1.26310095,1.31437566 L1.76310095,7.81437566 L42.2631009,7.31437566 L41.7631009,0.81437566 Z" id="Rectangle" fill="#F4F8F9"></path>
                        <circle id="Oval" fill="#F4F8F9" cx="4.76310095" cy="4.31437566" r="1"></circle>
                        <circle id="Oval-Copy-11" fill="#F4F8F9" cx="38.7631009" cy="4.31437566" r="1"></circle>
                    </g>
                </g>
                <g id="Group-19" transform="translate(80.000000, 128.000000)" stroke="#008DAD">
                    <g id="Group-16">
                        <path d="M52.1356157,0.5 L15.375631,0.5 C13.4716948,0.5 11.5863974,0.874962603 9.82735522,1.60348418 C6.12800952,3.13559822 3.39989248,6.02212327 1.97964038,9.45045623 C0.559388279,12.8787892 0.44700111,16.8489301 1.97911515,20.5482758 L16.3468068,55.2395956 C17.5075811,58.0423278 19.4553993,60.3574289 21.8714229,61.971847 C24.2874464,63.586265 27.1716754,64.5 30.2052715,64.5 L45.5491236,64.5 C47.9120173,64.5 50.1293391,63.7107358 51.9127109,62.3519313 C53.6960827,60.9931267 55.0455046,59.0647818 55.6725986,56.7866202 L66.1156527,18.8481898 C66.4607268,17.5945748 66.6356157,16.3002411 66.6356157,15 C66.6356157,10.9959356 65.0126479,7.37093556 62.388664,4.74695167 C59.7646801,2.12296778 56.1396801,0.5 52.1356157,0.5 Z" id="Rectangle" fill="#F4F8F9" transform="translate(33.799613, 32.500000) rotate(-180.000000) translate(-33.799613, -32.500000) "></path>
                        <circle id="Oval" fill="#008DAD" cx="36" cy="22" r="19"></circle>
                    </g>
                    <circle id="Oval-Copy-10" fill="#F4F8F9" cx="37.5" cy="14.5" r="6.5"></circle>
                </g>
                <g id="Group-22" transform="translate(157.760931, 107.760931) rotate(-315.000000) translate(-157.760931, -107.760931) translate(139.760931, 32.760931)">
                    <path d="M18,0.5 C13.1675084,0.5 8.79250844,2.45875422 5.62563133,5.62563133 C2.45875422,8.79250844 0.5,13.1675084 0.5,18 C0.5,20.9354135 1.22256509,23.7020835 2.49986732,26.1316474 L2.5,134.499999 C2.5,138.642136 4.17893219,142.392136 6.89339828,145.106602 C9.60786438,147.821068 13.3578644,149.5 17.5,149.5 L18.5,149.5 C22.6421356,149.5 26.3921356,147.821068 29.1066017,145.106602 C31.8210678,142.392136 33.5,138.642136 33.5,134.5 L33.5011615,26.1296902 C34.777823,23.7005977 35.5,20.9346253 35.5,18 C35.5,13.1675084 33.5412458,8.79250844 30.3743687,5.62563133 C27.2074916,2.45875422 22.8324916,0.5 18,0.5 Z" id="Combined-Shape" stroke="#008DAD" fill="#FFFFFF"></path>
                    <g id="Group-21" transform="translate(11.000000, 27.000000)">
                        <circle id="Oval-Copy-19" stroke="#008DAD" fill="#F4F8F9" cx="7" cy="108" r="7"></circle>
                        <circle id="Oval-Copy-20" fill="#008DAD" cx="7" cy="108" r="3"></circle>
                        <rect id="Rectangle" stroke="#008DAD" fill="#F4F8F9" x="4.03553391" y="1.47918472" width="6" height="93" rx="3"></rect>
                    </g>
                </g>
            </g>
        </g>
    </g>
</svg>